<svg xmlns="http://www.w3.org/2000/svg" viewBox="0 0 200 200" width="200" height="200">
  <path fill-rule="evenodd" fill="#ffffff" d="M 182 100 A 82 82 0 1 1 18 100 A 82 82 0 1 1 182 100 Z M 175 100 A 75 75 0 1 1 25 100 A 75 75 0 1 1 175 100 Z M 135 100 A 35 35 0 1 1 65 100 A 35 35 0 1 1 135 100 Z M 135 96.5 L 175 96.5 L 175 103.5 L 135 103.5 Z M 120.531 128.561 L 140.531 163.202 L 134.469 166.702 L 114.469 132.061 Z M 85.531 132.061 L 65.531 166.702 L 59.469 163.202 L 79.469 128.561 Z M 65 103.5 L 25 103.5 L 25 96.5 L 65 96.5 Z M 79.469 71.439 L 59.469 36.798 L 65.531 33.298 L 85.531 67.939 Z M 114.469 67.939 L 134.469 33.298 L 140.531 36.798 L 120.531 71.439 Z"/>
</svg>
